<svg width="256px" height="256px" viewBox="-6.24 -6.24 36.48 36.48" fill="none" xmlns="http://www.w3.org/2000/svg" stroke="#000000"><g id="SVGRepo_bgCarrier" stroke-width="0" transform="translate(0,0), scale(1)"><rect x="-6.24" y="-6.24" width="36.48" height="36.48" rx="18.24" fill="#000" strokewidth="0"></rect></g><g id="SVGRepo_tracerCarrier" stroke-linecap="round" stroke-linejoin="round"></g><g id="SVGRepo_iconCarrier"> <path d="M3 5V20.7929C3 21.2383 3.53857 21.4614 3.85355 21.1464L7.70711 17.2929C7.89464 17.1054 8.149 17 8.41421 17H19C20.1046 17 21 16.1046 21 15V5C21 3.89543 20.1046 3 19 3H5C3.89543 3 3 3.89543 3 5Z" stroke="#ffffff" stroke-width="2" stroke-linecap="round" stroke-linejoin="round"></path> <path d="M15 12C14.2005 12.6224 13.1502 13 12 13C10.8498 13 9.79952 12.6224 9 12" stroke="#ffffff" stroke-width="2" stroke-linecap="round" stroke-linejoin="round"></path> <path d="M9 8.01953V8" stroke="#ffffff" stroke-width="2" stroke-linecap="round" stroke-linejoin="round"></path> <path d="M15 8.01953V8" stroke="#ffffff" stroke-width="2" stroke-linecap="round" stroke-linejoin="round"></path> </g></svg>